<svg width="800" height="400" viewBox="0 0 800 400" xmlns="http://www.w3.org/2000/svg">
    <defs>
        <linearGradient id="eu_grad" x1="0%" y1="0%" x2="100%" y2="100%">
            <stop offset="0%" style="stop-color:#003399;stop-opacity:1" />
            <stop offset="100%" style="stop-color:#001144;stop-opacity:1" />
        </linearGradient>
    </defs>

    <rect width="800" height="400" fill="#f1f5f9" />

    <circle cx="400" cy="200" r="120" fill="url(#eu_grad)" stroke="#fbbf24" stroke-width="4" />

    <g transform="translate(400, 200)">
        <path d="M0 -85 L5 -70 L20 -70 L10 -55 L15 -40 L0 -50 L-15 -40 L-10 -55 L-20 -70 L-5 -70 Z" fill="#fbbf24"
            transform="rotate(0)" />
        <path d="M0 -85 L5 -70 L20 -70 L10 -55 L15 -40 L0 -50 L-15 -40 L-10 -55 L-20 -70 L-5 -70 Z" fill="#fbbf24"
            transform="rotate(30)" />
        <path d="M0 -85 L5 -70 L20 -70 L10 -55 L15 -40 L0 -50 L-15 -40 L-10 -55 L-20 -70 L-5 -70 Z" fill="#fbbf24"
            transform="rotate(60)" />
        <path d="M0 -85 L5 -70 L20 -70 L10 -55 L15 -40 L0 -50 L-15 -40 L-10 -55 L-20 -70 L-5 -70 Z" fill="#fbbf24"
            transform="rotate(90)" />
        <path d="M0 -85 L5 -70 L20 -70 L10 -55 L15 -40 L0 -50 L-15 -40 L-10 -55 L-20 -70 L-5 -70 Z" fill="#fbbf24"
            transform="rotate(120)" />
        <path d="M0 -85 L5 -70 L20 -70 L10 -55 L15 -40 L0 -50 L-15 -40 L-10 -55 L-20 -70 L-5 -70 Z" fill="#fbbf24"
            transform="rotate(150)" />
        <path d="M0 -85 L5 -70 L20 -70 L10 -55 L15 -40 L0 -50 L-15 -40 L-10 -55 L-20 -70 L-5 -70 Z" fill="#fbbf24"
            transform="rotate(180)" />
        <path d="M0 -85 L5 -70 L20 -70 L10 -55 L15 -40 L0 -50 L-15 -40 L-10 -55 L-20 -70 L-5 -70 Z" fill="#fbbf24"
            transform="rotate(210)" />
        <path d="M0 -85 L5 -70 L20 -70 L10 -55 L15 -40 L0 -50 L-15 -40 L-10 -55 L-20 -70 L-5 -70 Z" fill="#fbbf24"
            transform="rotate(240)" />
        <path d="M0 -85 L5 -70 L20 -70 L10 -55 L15 -40 L0 -50 L-15 -40 L-10 -55 L-20 -70 L-5 -70 Z" fill="#fbbf24"
            transform="rotate(270)" />
        <path d="M0 -85 L5 -70 L20 -70 L10 -55 L15 -40 L0 -50 L-15 -40 L-10 -55 L-20 -70 L-5 -70 Z" fill="#fbbf24"
            transform="rotate(300)" />
        <path d="M0 -85 L5 -70 L20 -70 L10 -55 L15 -40 L0 -50 L-15 -40 L-10 -55 L-20 -70 L-5 -70 Z" fill="#fbbf24"
            transform="rotate(330)" />
    </g>

    <path d="M370 190 L370 170 C370 153.4 383.4 140 400 140 C416.6 140 430 153.4 430 170 L430 190" stroke="white"
        stroke-width="8" fill="none" />
    <rect x="350" y="190" width="100" height="80" rx="10" fill="white" />
    <circle cx="400" cy="230" r="10" fill="#ce4a18" />
    <rect x="395" y="230" width="10" height="20" fill="#ce4a18" />

    <text x="620" y="200" font-family="sans-serif" font-size="20" font-weight="bold" fill="#0f172a">CYBER</text>
    <text x="620" y="225" font-family="sans-serif" font-size="20" font-weight="bold" fill="#ce4a18">RESILIENCE
        ACT</text>

    <text x="150" y="350" font-family="monospace" font-size="14" fill="#64748b">Entered into force: DEC 2024</text>
    <text x="650" y="350" font-family="monospace" font-size="14" fill="#64748b" text-anchor="middle">Deadline: DEC
        2027</text>
</svg>