<svg width="800" height="550" viewBox="0 0 800 550" xmlns="http://www.w3.org/2000/svg">
    <defs>
        <marker id="arrow" markerWidth="10" markerHeight="7" refX="10" refY="3.5" orient="auto">
            <polygon points="0 0, 10 3.5, 0 7" fill="#64748b" />
        </marker>
        <marker id="arrow-red" markerWidth="10" markerHeight="7" refX="10" refY="3.5" orient="auto">
            <polygon points="0 0, 10 3.5, 0 7" fill="#dc2626" />
        </marker>
    </defs>

    <rect width="800" height="550" fill="#ffffff" />

    <line x1="100" y1="80" x2="100" y2="500" stroke="#cbd5e1" stroke-width="2" stroke-dasharray="5,5" />
    <line x1="300" y1="80" x2="300" y2="500" stroke="#cbd5e1" stroke-width="2" stroke-dasharray="5,5" />
    <line x1="500" y1="80" x2="500" y2="500" stroke="#cbd5e1" stroke-width="2" stroke-dasharray="5,5" />
    <line x1="700" y1="80" x2="700" y2="500" stroke="#cbd5e1" stroke-width="2" stroke-dasharray="5,5" />

    <rect x="40" y="30" width="120" height="50" rx="6" fill="#0f172a" stroke="#0f172a" stroke-width="2" />
    <text x="100" y="60" font-family="sans-serif" font-size="14" font-weight="bold" fill="#ffffff"
        text-anchor="middle">UI (React)</text>

    <rect x="240" y="30" width="120" height="50" rx="6" fill="#ce4a18" stroke="#ce4a18" stroke-width="2" />
    <text x="300" y="60" font-family="sans-serif" font-size="14" font-weight="bold" fill="#ffffff"
        text-anchor="middle">Backend</text>

    <rect x="440" y="30" width="120" height="50" rx="6" fill="#ffffff" stroke="#64748b" stroke-width="2" />
    <text x="500" y="60" font-family="sans-serif" font-size="14" font-weight="bold" fill="#0f172a"
        text-anchor="middle">Compilateur</text>

    <rect x="640" y="30" width="120" height="50" rx="6" fill="#ffffff" stroke="#64748b" stroke-width="2" />
    <text x="700" y="60" font-family="sans-serif" font-size="14" font-weight="bold" fill="#0f172a"
        text-anchor="middle">Vérificateur</text>


    <line x1="100" y1="120" x2="290" y2="120" stroke="#0f172a" stroke-width="2" marker-end="url(#arrow)" />
    <text x="200" y="110" font-family="monospace" font-size="12" fill="#0f172a"
        text-anchor="middle">submit_mandate(json, sig)</text>

    <line x1="300" y1="160" x2="690" y2="160" stroke="#0f172a" stroke-width="2" marker-end="url(#arrow)" />
    <text x="500" y="150" font-family="monospace" font-size="12" fill="#0f172a" text-anchor="middle">verify(json, sig,
        pub_key)</text>

    <rect x="20" y="190" width="760" height="280" fill="#f8fafc" stroke="#cbd5e1" stroke-width="1" rx="4" />
    <path d="M 20,190 L 100,190 L 110,210 L 20,210 Z" fill="#cbd5e1" />
    <text x="60" y="205" font-family="sans-serif" font-size="11" font-weight="bold" fill="#475569"
        text-anchor="middle">ALT</text>

    <text x="140" y="210" font-family="sans-serif" font-size="12" font-weight="bold" fill="#16a34a">[ Signature Valide
        ]</text>

    <line x1="700" y1="230" x2="310" y2="230" stroke="#16a34a" stroke-width="2" stroke-dasharray="5,3"
        marker-end="url(#arrow)" />
    <text x="500" y="220" font-family="sans-serif" font-size="12" fill="#16a34a" text-anchor="middle">OK</text>

    <line x1="300" y1="270" x2="490" y2="270" stroke="#0f172a" stroke-width="2" marker-end="url(#arrow)" />
    <text x="400" y="260" font-family="monospace" font-size="12" fill="#0f172a"
        text-anchor="middle">compile(mandate)</text>

    <line x1="500" y1="310" x2="110" y2="310" stroke="#16a34a" stroke-width="2" stroke-dasharray="5,3"
        marker-end="url(#arrow)" />
    <text x="300" y="300" font-family="sans-serif" font-size="12" font-weight="bold" fill="#16a34a"
        text-anchor="middle">Workflow Prêt</text>


    <line x1="20" y1="340" x2="780" y2="340" stroke="#cbd5e1" stroke-width="1" stroke-dasharray="5,5" />
    <text x="145" y="360" font-family="sans-serif" font-size="12" font-weight="bold" fill="#dc2626">[ Signature Invalide
        ]</text>

    <line x1="700" y1="390" x2="310" y2="390" stroke="#dc2626" stroke-width="2" stroke-dasharray="5,3"
        marker-end="url(#arrow-red)" />
    <text x="500" y="380" font-family="sans-serif" font-size="12" font-weight="bold" fill="#dc2626"
        text-anchor="middle">REJET</text>

    <line x1="300" y1="430" x2="110" y2="430" stroke="#dc2626" stroke-width="2" stroke-dasharray="5,3"
        marker-end="url(#arrow-red)" />
    <text x="200" y="420" font-family="sans-serif" font-size="12" font-weight="bold" fill="#dc2626"
        text-anchor="middle">🚨 Erreur Critique</text>

</svg>