<svg width="800" height="400" viewBox="0 0 800 400" xmlns="http://www.w3.org/2000/svg">
    <rect width="800" height="400" fill="#f8fafc" />
    <pattern id="grid" width="40" height="40" patternUnits="userSpaceOnUse">
        <path d="M 40 0 L 0 0 0 40" fill="none" stroke="#e2e8f0" stroke-width="1" />
    </pattern>
    <rect width="800" height="400" fill="url(#grid)" />

    <path d="M400 320 C 340 300, 300 240, 300 160 L 300 100 L 400 60 L 500 100 L 500 160 C 500 240, 460 300, 400 320 Z"
        fill="#0f172a" stroke="#ce4a18" stroke-width="8" />

    <g transform="translate(400, 180)" fill="#ce4a18">
        <circle r="30" fill="#f8fafc" />
        <path
            d="M-15 -45 L15 -45 L20 -25 L40 -15 L55 -30 L70 -5 L50 15 L50 35 L70 55 L55 80 L35 65 L15 75 L-5 75 L-25 65 L-45 80 L-60 55 L-40 35 L-40 15 L-60 -5 L-45 -30 L-25 -15 L-20 -25 Z"
            transform="scale(0.8)" fill="#ce4a18" />
        <circle r="15" fill="#f8fafc" />
    </g>

    <text x="400" y="360" font-family="sans-serif" font-size="24" font-weight="bold" fill="#0f172a" text-anchor="middle"
        letter-spacing="2">
        RUST MEMORY SAFETY
    </text>
</svg>