<svg xmlns="http://www.w3.org/2000/svg" viewBox="0 0 800 600" font-family="'Segoe UI', Roboto, Helvetica, Arial, sans-serif">
  <defs>
    <linearGradient id="boundaryGrad" x1="0%" y1="0%" x2="100%" y2="100%">
      <stop offset="0%" style="stop-color:#f1f5f9;stop-opacity:1" />
      <stop offset="100%" style="stop-color:#e2e8f0;stop-opacity:1" />
    </linearGradient>
    <linearGradient id="rustGrad" x1="0%" y1="0%" x2="100%" y2="0%">
      <stop offset="0%" style="stop-color:#ea580c;stop-opacity:1" /> <stop offset="100%" style="stop-color:#c2410c;stop-opacity:1" />
    </linearGradient>
     <linearGradient id="aiGrad" x1="0%" y1="0%" x2="100%" y2="0%">
      <stop offset="0%" style="stop-color:#8b5cf6;stop-opacity:1" /> <stop offset="100%" style="stop-color:#6d28d9;stop-opacity:1" />
    </linearGradient>
    <linearGradient id="logicGrad" x1="0%" y1="0%" x2="100%" y2="0%">
      <stop offset="0%" style="stop-color:#0ea5e9;stop-opacity:1" /> <stop offset="100%" style="stop-color:#0284c7;stop-opacity:1" />
    </linearGradient>
    <filter id="dropShadow" height="130%">
      <feGaussianBlur in="SourceAlpha" stdDeviation="3"/>
      <feOffset dx="2" dy="2" result="offsetblur"/>
      <feComponentTransfer>
        <feFuncA type="linear" slope="0.2"/>
      </feComponentTransfer>
      <feMerge> 
        <feMergeNode/>
        <feMergeNode in="SourceGraphic"/>
      </feMerge>
    </filter>
  </defs>

  <rect x="20" y="20" width="760" height="560" rx="20" ry="20" fill="url(#boundaryGrad)" stroke="#94a3b8" stroke-width="2" stroke-dasharray="5,5"/>
  <text x="400" y="50" text-anchor="middle" font-size="16" font-weight="bold" fill="#64748b">🛡️ WORKSTATION SOVEREIGNTY BOUNDARY (Local Execution)</text>

  <g transform="translate(350, 80)">
    <circle cx="50" cy="30" r="25" fill="#334155" />
    <text x="50" y="38" text-anchor="middle" font-size="24">👨‍✈️</text>
    <text x="50" y="70" text-anchor="middle" font-weight="bold" fill="#334155">HUMAN OPERATOR</text>
    <text x="50" y="85" text-anchor="middle" font-size="12" fill="#64748b">(Sovereign Decision Maker)</text>
  </g>

  <path d="M400 170 L400 190" stroke="#334155" stroke-width="2" marker-end="url(#arrowhead)"/>

  <g transform="translate(250, 190)" filter="url(#dropShadow)">
    <rect x="0" y="0" width="300" height="60" rx="8" ry="8" fill="#ffffff" stroke="#3b82f6" stroke-width="2"/>
    <text x="150" y="35" text-anchor="middle" font-weight="bold" fill="#1e293b">🖥️ Sovereign Interface (React)</text>
  </g>

  <path d="M400 250 L400 275" stroke="#334155" stroke-width="3" marker-end="url(#arrowhead)"/>

  <g transform="translate(200, 275)">
    <rect x="0" y="0" width="400" height="40" rx="20" ry="20" fill="#1e293b" />
    <text x="200" y="25" text-anchor="middle" font-weight="bold" fill="#ffffff" font-family="monospace">⚡ Tauri Secure Bridge (Rust IPC)</text>
  </g>

  <path d="M400 315 L400 345" stroke="#ea580c" stroke-width="3" marker-end="url(#arrowheadRust)"/>

  <g transform="translate(50, 345)">
    <rect x="0" y="0" width="700" height="220" rx="12" ry="12" fill="#fff7ed" stroke="#ea580c" stroke-width="2" filter="url(#dropShadow)"/>
    <text x="350" y="25" text-anchor="middle" font-weight="bold" fill="#9a3412">R.A.I.S.E. COGNITIVE CORE (Rust Backend)</text>

    <g transform="translate(50, 40)">
      <rect x="0" y="0" width="280" height="100" rx="8" ry="8" fill="url(#logicGrad)" />
      <text x="140" y="30" text-anchor="middle" font-weight="bold" fill="white" font-size="14">⚙️ LOGICAL CORTEX</text>
      <text x="140" y="55" text-anchor="middle" fill="white" font-size="12">Rules Engine (Deterministic)</text>
      <text x="140" y="75" text-anchor="middle" fill="white" font-size="10" font-family="monospace">src/rules_engine</text>

      <path d="M280 50 L320 50" stroke="#ea580c" stroke-width="2" marker-end="url(#arrowheadRust)" marker-start="url(#arrowtailRust)"/>

      <rect x="320" y="0" width="280" height="100" rx="8" ry="8" fill="url(#aiGrad)" />
      <text x="460" y="30" text-anchor="middle" font-weight="bold" fill="white" font-size="14">🧠 SEMANTIC CORTEX</text>
      <text x="460" y="55" text-anchor="middle" fill="white" font-size="12">Local AI (Ollama/LLM)</text>
      <text x="460" y="75" text-anchor="middle" fill="white" font-size="10" font-family="monospace">src/ai/ollama_client.rs</text>
    </g>

    <g transform="translate(200, 160)">
      <rect x="0" y="0" width="300" height="50" rx="8" ry="8" fill="#f1f5f9" stroke="#334155" />
      <text x="150" y="30" text-anchor="middle" font-weight="bold" fill="#334155">⚡ Workflow Engine (Executive)</text>
    </g>

     <path d="M350 140 L350 160" stroke="#ea580c" stroke-width="2" marker-end="url(#arrowheadRust)"/>

    <g transform="translate(325, 220)">
       <polygon points="25,0 50,25 25,50 0,25" fill="#facc15" stroke="#ca8a04" stroke-width="2"/>
       <text x="25" y="28" text-anchor="middle" font-size="10" font-weight="bold">HITL</text>
     </g>

     <path d="M350 210 L350 220" stroke="#334155" stroke-width="2" marker-end="url(#arrowhead)"/>

     <path d="M375 245 C 600 245, 600 150, 560 120" stroke="#facc15" stroke-width="3" stroke-dasharray="5,5" fill="none" marker-end="url(#arrowheadYellow)"/>
     <text x="520" y="180" text-anchor="middle" font-size="11" font-weight="bold" fill="#b45309">Validation Loop (GateHitl)</text>
  </g>

  <g transform="translate(600, 385)" filter="url(#dropShadow)">
    <rect x="0" y="0" width="160" height="80" rx="8" ry="8" fill="#ffffff" stroke="#059669" stroke-width="2"/>
    <text x="80" y="30" text-anchor="middle" font-weight="bold" fill="#065f46">📚 Memory</text>
    <text x="80" y="50" text-anchor="middle" font-size="10" fill="#047857">Structured Models</text>
    <text x="80" y="65" text-anchor="middle" font-size="10" font-family="monospace" fill="#064e3b">src/model_engine</text>
  </g>
  <path d="M650 425 L750 425" stroke="#059669" stroke-width="2" marker-start="url(#arrowtailGreen)" marker-end="url(#arrowheadGreen)"/>


  <g transform="translate(50, 385)" filter="url(#dropShadow)">
    <rect x="0" y="0" width="160" height="80" rx="8" ry="8" fill="#ffffff" stroke="#7c3aed" stroke-width="2"/>
    <text x="80" y="30" text-anchor="middle" font-weight="bold" fill="#5b21b6">🛡️ Social Conscience</text>
    <text x="80" y="50" text-anchor="middle" font-size="10" fill="#6d28d9">Blockchain Audit</text>
    <text x="80" y="65" text-anchor="middle" font-size="10" font-family="monospace" fill="#4c1d95">src/traceability</text>
  </g>
   <path d="M50 425 L150 425" stroke="#7c3aed" stroke-width="2" marker-start="url(#arrowtailPurple)" marker-end="url(#arrowheadPurple)"/>


  <defs>
    <marker id="arrowhead" markerWidth="10" markerHeight="7" refX="9" refY="3.5" orient="auto">
      <polygon points="0 0, 10 3.5, 0 7" fill="#334155" />
    </marker>
    <marker id="arrowheadRust" markerWidth="10" markerHeight="7" refX="9" refY="3.5" orient="auto">
      <polygon points="0 0, 10 3.5, 0 7" fill="#ea580c" />
    </marker>
    <marker id="arrowtailRust" markerWidth="10" markerHeight="7" refX="0" refY="3.5" orient="auto">
        <polygon points="10 0, 0 3.5, 10 7" fill="#ea580c" />
    </marker>
     <marker id="arrowheadYellow" markerWidth="10" markerHeight="7" refX="9" refY="3.5" orient="auto">
      <polygon points="0 0, 10 3.5, 0 7" fill="#facc15" />
    </marker>
    <marker id="arrowheadGreen" markerWidth="10" markerHeight="7" refX="9" refY="3.5" orient="auto">
      <polygon points="0 0, 10 3.5, 0 7" fill="#059669" />
    </marker>
    <marker id="arrowtailGreen" markerWidth="10" markerHeight="7" refX="0" refY="3.5" orient="auto">
        <polygon points="10 0, 0 3.5, 10 7" fill="#059669" />
    </marker>
     <marker id="arrowheadPurple" markerWidth="10" markerHeight="7" refX="9" refY="3.5" orient="auto">
      <polygon points="0 0, 10 3.5, 0 7" fill="#7c3aed" />
    </marker>
    <marker id="arrowtailPurple" markerWidth="10" markerHeight="7" refX="0" refY="3.5" orient="auto">
        <polygon points="10 0, 0 3.5, 10 7" fill="#7c3aed" />
    </marker>
  </defs>
</svg>
